
        <svg xmlns="http://www.w3.org/2000/svg" xmlns:xlink="http://www.w3.org/1999/xlink" version="1.1" width="9700" 
        height="9700" viewBox="0 0 3162.2440842921505 731.4618550041848">
			<rect fill="#fcfcfc" width="9700.2440842921505" height="9700.4618550041848"/>
			<g transform="scale(8.112204214607527) translate(10, 10)">
				<defs id="SvgjsDefs4077"></defs><g id="SvgjsG4078" featureKey="symbolFeature-0" transform="matrix(0.6476754025417338,0,0,0.6476754025417338,-2.170219799382268,4.353348812447502)" fill="#111111"><path xmlns="http://www.w3.org/2000/svg" d="M91,71.568a106.364,106.364,0,0,0-6.957-16.351c-.693-1.326-4.228-7.989-5.736-8.928a34.319,34.319,0,0,0-6.017-3.01l1.822-3.195a1.115,1.115,0,0,0,.131-.38c.607-4.078-1.325-9.349-2.877-13.584-.606-1.652-1.178-3.212-1.511-4.457C68.463,16.442,61.891,10.422,59.13,8.077,56.205,5.591,50.121,1,47.575,1L47.5,1C45,.9,38.824,5.567,35.87,8.077c-2.76,2.345-9.332,8.365-10.727,13.586-.333,1.245-.905,2.805-1.51,4.457-1.553,4.235-3.485,9.506-2.877,13.584a1.074,1.074,0,0,0,.131.38l1.821,3.2a34.283,34.283,0,0,0-6.017,3.01c-1.508.939-5.043,7.6-5.736,8.928A106.507,106.507,0,0,0,4,71.568,13.5,13.5,0,0,0,5.314,82.715a15.153,15.153,0,0,0,9.1,6.814v1.578A3.008,3.008,0,0,0,17.517,94H77.585a3.007,3.007,0,0,0,3.1-2.893V89.5a15.173,15.173,0,0,0,9.028-6.841A13.506,13.506,0,0,0,91,71.568ZM75.149,86.354h-55.2V56.482a.722.722,0,0,1,.713-.713h53.77a.723.723,0,0,1,.713.713ZM54.977,53.589H40.023c-.014-1.632.008-3.431.068-5.579a52.833,52.833,0,0,0,6.934,3.929,1.089,1.089,0,0,0,.95,0,52.833,52.833,0,0,0,6.934-3.929C54.969,50.158,54.991,51.957,54.977,53.589ZM47.5,49.745c-7.949-3.909-13.184-8.064-14.581-16.1C37.963,31.274,43.541,29.5,47.5,29.273c3.959.227,9.537,2,14.581,4.369C60.684,41.681,55.45,45.836,47.5,49.745Zm-16.611-15.1a19.131,19.131,0,0,0,4.9,9.715A23.383,23.383,0,0,0,37.96,46.4c-.1,2.872-.133,5.154-.117,7.187H31.094L23.2,39.738A36.352,36.352,0,0,1,30.889,34.643ZM57.157,53.589c.017-2.033-.021-4.315-.117-7.187a23.258,23.258,0,0,0,2.175-2.044,19.124,19.124,0,0,0,4.9-9.715A36.387,36.387,0,0,1,71.8,39.738l-7.9,13.851ZM25.679,26.87c.623-1.7,1.212-3.3,1.57-4.645.864-3.236,4.489-7.76,9.944-12.412,5.212-4.444,9.318-6.635,10.187-6.635H47.4a1.018,1.018,0,0,0,.2,0c.84-.033,4.963,2.159,10.21,6.634,5.455,4.652,9.08,9.176,9.945,12.412.358,1.341.946,2.946,1.569,4.646,1.18,3.219,2.591,7.071,2.826,10.291-6.045-4.874-17.536-9.69-24.588-10.069a1.142,1.142,0,0,0-.117,0c-7.052.379-18.544,5.195-24.588,10.069C23.088,33.942,24.5,30.09,25.679,26.87ZM7.182,81.592a11.212,11.212,0,0,1-1.1-9.371c3.569-11.366,10.6-23.158,11.78-24.091A31.925,31.925,0,0,1,23.8,45.2l4.785,8.394H20.666a2.9,2.9,0,0,0-2.893,2.893V86.354H15.5a1.09,1.09,0,0,0-1.075.915A13.188,13.188,0,0,1,7.182,81.592ZM78.51,91.107a.852.852,0,0,1-.925.713H17.517a.851.851,0,0,1-.925-.713V88.533H78.51Zm9.335-9.559a13,13,0,0,1-7.175,5.695,1.089,1.089,0,0,0-1.07-.889H77.329V56.482a2.9,2.9,0,0,0-2.893-2.893H66.415L71.2,45.2a31.9,31.9,0,0,1,5.942,2.935c1.183.933,8.211,12.725,11.78,24.091A11.216,11.216,0,0,1,87.845,81.548ZM51.883,63.031,45.247,79.89a1.091,1.091,0,0,1-1.015.691,1.107,1.107,0,0,1-.4-.076,1.09,1.09,0,0,1-.614-1.414l6.636-16.859a1.09,1.09,0,1,1,2.028.8Zm-8.8,13.314a1.091,1.091,0,0,1-1.526.222l-6.2-4.633a1.089,1.089,0,0,1,0-1.746l6.2-4.632a1.09,1.09,0,1,1,1.3,1.746l-5.035,3.759L42.86,74.82A1.09,1.09,0,0,1,43.081,76.345Zm17.107-5.284a1.09,1.09,0,0,1-.438.873l-6.2,4.633a1.09,1.09,0,0,1-1.3-1.747l5.034-3.759L52.242,67.3a1.09,1.09,0,0,1,1.3-1.746l6.2,4.632A1.091,1.091,0,0,1,60.188,71.061Z"></path></g><g id="SvgjsG4079" featureKey="nameFeature-0" transform="matrix(1.040000837983048,0,0,1.040000837983048,74.00521204922305,-12.478970626248117)" fill="#111111"><path d="M16.92 26 l14 -14 l0 28 l-4.64 0 l0 -16.743 l-9.3604 9.3604 l-14.04 -14.102 l0 -6.515 z M30.046 39.12548 l-0.000039062 -25.014 l-12.508 12.507 l-0.61716 0.61716 l-0.618 -0.61628 l-12.548 -12.512 l0 4.0473 l13.167 13.225 l10.233 -10.233 l0 17.979 l2.8917 0 z M56.184 18.806 c1.9904 1.9913 2.9991 4.4116 2.9982 7.1932 c0 2.7807 -1.007 5.2136 -2.994 7.23 c-2 1.9703 -4.4188 2.9642 -7.1996 2.9642 c-2.778 0 -5.2088 -0.99216 -7.2256 -2.9502 c-1.9756 -2.035 -2.9686 -4.466 -2.9686 -7.244 c0 -2.7798 0.99392 -5.1984 2.9546 -7.1888 c2.0254 -1.9965 4.458 -3.0044 7.2396 -3.0044 c2.7841 0 5.2048 1.0096 7.1952 3.0001 z M55.566 32.6164 c1.8287 -1.8558 2.7431 -4.0604 2.7431 -6.6164 c0 -2.5542 -0.91432 -4.7456 -2.743 -6.5752 s-4.0212 -2.7439 -6.576 -2.7439 s-4.7608 0.91432 -6.6164 2.7439 c-1.8025 1.8287 -2.7038 4.02 -2.7038 6.5752 s0.90124 4.7608 2.7038 6.6164 c1.8558 1.8025 4.0604 2.7038 6.6164 2.7038 c2.5542 0 4.7468 -0.90124 6.576 -2.7038 z M58.873999999999995 16.115 c2.7702 2.744 4.1556 6.0396 4.1564 9.8848 c0 3.9004 -1.3855 7.196 -4.1556 9.8848 c-2.7177 2.744 -6.0116 4.1156 -9.8848 4.1156 s-7.1688 -1.3724 -9.8848 -4.1156 c-2.744 -2.7168 -4.1156 -6.0116 -4.1156 -9.8848 c0 -3.8462 1.3715 -7.1408 4.1156 -9.8848 c2.6897 -2.744 5.9844 -4.1156 9.8848 -4.1156 c3.8724 0 7.1672 1.3724 9.884 4.1156 z M58.254 35.2692 c2.6294 -2.5534 3.9022 -5.5812 3.903 -9.2692 c0 -3.6364 -1.2745 -6.6664 -3.8969 -9.2632 c-2.5761 -2.6014 -5.606 -3.8628 -9.2692 -3.8628 c-3.6906 0 -6.7196 1.2605 -9.2608 3.8532 c-2.6032 2.6032 -3.8655 5.6348 -3.8655 9.2728 c0 3.6644 1.2614 6.694 3.8567 9.2632 c2.5752 2.6006 5.6052 3.862 9.2696 3.862 c3.6626 0 6.6932 -1.2614 9.2632 -3.8559 z M85.753 12 l4.6732 0 l0 28.001 l-23.286 -20.923 l0 -7.0779 l18.613 16.76 l0 -16.76 z M89.552 38.0397 l0 -25.166 l-2.9249 0 l0 17.849 l-1.459 -1.3138 l-17.154 -15.446 l0 4.7247 z M115.176 12 l-14 13.999 l14 14 l-6.5753 0 l-14.07 -13.976 l14.07 -14.024 l6.5753 0 z M113.065 39.12544 l-13.125 -13.125 l0.618 -0.618 l12.507 -12.508 l-4.1041 0 l-13.192 13.148 l13.192 13.103 l4.105 0 z M122.4 24.643 l28 0 l0 4.6732 l-28 0 l0 -4.6732 z M149.526 28.442 l0 -2.9249 l-26.251 0 l0 2.9249 l26.251 0 z M165.014 19.403 c-0.83396 0.84792 -1.5 1.8366 -1.9974 2.966 c-0.49824 1.1303 -0.74648 2.3392 -0.74648 3.6312 c0 1.2902 0.24824 2.5009 0.74648 3.6303 c0.4974 1.1303 1.1696 2.119 2.0175 2.966 c0.84704 0.84792 1.8357 1.5123 2.966 1.9965 c1.1294 0.48516 2.3392 0.7264 3.6303 0.7264 l5.4268 3.5901 c-1.6818 0.7264 -3.4896 1.09 -5.4268 1.09 c-1.9354 0 -3.7518 -0.37062 -5.446 -1.1102 c-1.695 -0.7404 -3.181 -1.7491 -4.4592 -3.0262 c-1.2771 -1.278 -2.2859 -2.7702 -3.0254 -4.4784 c-0.7404 -1.7081 -1.1102 -3.5036 -1.1102 -5.3856 c0 -1.9362 0.36976 -3.7527 1.1102 -5.4468 c0.73952 -1.6941 1.7483 -3.174 3.0254 -4.4372 c1.278 -1.2649 2.7649 -2.2658 4.4592 -3.0053 c1.6941 -0.7404 3.5097 -1.1102 5.446 -1.1102 c1.9371 0 3.7448 0.36277 5.4268 1.0901 c1.681 0.7264 3.167 1.7343 4.458 3.0263 l-3.3078 3.2676 c-1.8558 -1.8025 -4.048 -2.7038 -6.576 -2.7038 c-1.2911 0 -2.5079 0.24215 -3.6512 0.7264 c-1.1442 0.48424 -2.132 1.1495 -2.966 1.9965 z M162.2168 29.983 c-0.5446 -1.2343 -0.821 -2.5744 -0.821 -3.9835 c0 -1.4082 0.27711 -2.7492 0.82172 -3.9843 c0.53672 -1.2203 1.2675 -2.3051 2.1731 -3.2256 c0.9126 -0.9266 2.0053 -1.6626 3.2484 -2.1889 c1.2465 -0.52796 2.5892 -0.79548 3.9913 -0.79548 c2.4677 0 4.6672 0.799 6.5492 2.3759 l2.0752 -2.0499 c-1.0542 -0.92572 -2.243 -1.6775 -3.5446 -2.2395 c-1.563 -0.67484 -3.2719 -1.0175 -5.0796 -1.0175 c-1.8068 0 -3.521 0.34879 -5.0972 1.0358 c-1.5883 0.6932 -2.9992 1.6442 -4.1932 2.8261 c-1.1932 1.1801 -2.1478 2.5813 -2.8392 4.1652 c-0.68796 1.5752 -1.0368 3.2903 -1.0368 5.098 c0 1.7544 0.34879 3.4494 1.0376 5.0384 c0.69144 1.5971 1.6478 3.0132 2.8418 4.208 c1.195 1.1932 2.605 2.1504 4.1908 2.8427 c1.5761 0.68796 3.2912 1.0368 5.0964 1.0368 c1.208 0 2.3724 -0.15297 3.4791 -0.45628 l-3.7466 -2.4791 c-1.3077 -0.031484 -2.5534 -0.29808 -3.7073 -0.79372 c-1.2282 -0.52536 -2.3182 -1.2596 -3.2395 -2.1819 c-0.92132 -0.9196 -1.6609 -2.007 -2.1993 -3.2317 z M204.81400000000002 18.806 c1.9904 1.9913 2.9991 4.4116 2.9982 7.1932 c0 2.7807 -1.007 5.2136 -2.994 7.23 c-2 1.9703 -4.4188 2.9642 -7.1996 2.9642 c-2.778 0 -5.2088 -0.99216 -7.2256 -2.9502 c-1.9756 -2.035 -2.9686 -4.466 -2.9686 -7.244 c0 -2.7798 0.99392 -5.1984 2.9546 -7.1888 c2.0254 -1.9965 4.458 -3.0044 7.2396 -3.0044 c2.7841 0 5.2048 1.0096 7.1952 3.0001 z M204.196 32.6164 c1.8287 -1.8558 2.7431 -4.0604 2.7431 -6.6164 c0 -2.5542 -0.91432 -4.7456 -2.743 -6.5752 s-4.0212 -2.7439 -6.576 -2.7439 s-4.7608 0.91432 -6.6164 2.7439 c-1.8025 1.8287 -2.7038 4.02 -2.7038 6.5752 s0.90124 4.7608 2.7038 6.6164 c1.8558 1.8025 4.0604 2.7038 6.6164 2.7038 c2.5542 0 4.7468 -0.90124 6.576 -2.7038 z M207.50400000000002 16.115 c2.7702 2.744 4.1556 6.0396 4.1564 9.8848 c0 3.9004 -1.3855 7.196 -4.1556 9.8848 c-2.7177 2.744 -6.0116 4.1156 -9.8848 4.1156 s-7.1688 -1.3724 -9.8848 -4.1156 c-2.744 -2.7168 -4.1156 -6.0116 -4.1156 -9.8848 c0 -3.8462 1.3715 -7.1408 4.1156 -9.8848 c2.6897 -2.744 5.9844 -4.1156 9.8848 -4.1156 c3.8724 0 7.1672 1.3724 9.884 4.1156 z M206.88400000000001 35.2692 c2.6294 -2.5534 3.9022 -5.5812 3.903 -9.2692 c0 -3.6364 -1.2745 -6.6664 -3.8969 -9.2632 c-2.5761 -2.6014 -5.606 -3.8628 -9.2692 -3.8628 c-3.6906 0 -6.7196 1.2605 -9.2608 3.8532 c-2.6032 2.6032 -3.8655 5.6348 -3.8655 9.2728 c0 3.6644 1.2614 6.694 3.8567 9.2632 c2.5752 2.6006 5.6052 3.862 9.2696 3.862 c3.6626 0 6.6932 -1.2614 9.2632 -3.8559 z M233.18 20.594 c0.73952 1.695 1.1092 3.4965 1.1092 5.4048 c0 1.9109 -0.36976 3.7124 -1.1093 5.4064 c-0.73952 1.695 -1.7422 3.1819 -3.0053 4.4588 c-1.2658 1.278 -2.7509 2.2859 -4.4588 3.0254 c-1.7081 0.7404 -3.5167 1.1102 -5.426 1.1102 l-9.3201 0 l4.64 -4.68 l4.6802 0 c1.2902 0 2.5009 -0.24215 3.6303 -0.7264 s2.118 -1.1565 2.966 -2.0175 c0.84704 -0.86016 1.5123 -1.8558 1.9965 -2.9852 c0.48424 -1.1303 0.7264 -2.3261 0.7264 -3.591 c0 -1.2631 -0.24215 -2.4607 -0.7264 -3.5901 s-1.1574 -2.125 -2.0175 -2.9852 c-0.861 -0.861 -1.8558 -1.5332 -2.9852 -2.0175 c-1.1294 -0.48516 -2.327 -0.7264 -3.5901 -0.7264 l-4.6802 0 l-4.64 -4.68 l9.3201 0 c1.9091 0 3.7116 0.37062 5.4056 1.1092 c1.695 0.7404 3.1801 1.7491 4.458 3.0262 c1.2771 1.278 2.2859 2.7641 3.0262 4.458 z M232.38 31.0564 c0.68708 -1.5752 1.0358 -3.2762 1.0358 -5.056 s-0.34879 -3.4817 -1.0358 -5.0568 c-0.69232 -1.5848 -1.6486 -2.9939 -2.8436 -4.1896 c-1.1958 -1.1941 -2.6049 -2.1504 -4.1896 -2.8427 c-1.5761 -0.68796 -3.278 -1.0368 -5.056 -1.0368 l-7.223 0 l2.9065 2.9319 l4.3165 0 c1.3794 0 2.7028 0.26836 3.9354 0.79724 c1.2247 0.52448 2.3209 1.2658 3.2579 2.202 c0.9362 0.9362 1.6766 2.0332 2.2028 3.2596 c0.52888 1.2343 0.79724 2.5577 0.79724 3.9345 s-0.26836 2.7002 -0.79724 3.9354 c-0.52536 1.2247 -1.2579 2.32 -2.1775 3.2544 c-0.92224 0.93708 -2.014 1.6801 -3.244 2.2072 c-1.2343 0.52888 -2.5717 0.79724 -3.9747 0.79724 l-4.3165 0 l-2.9065 2.9319 l7.223 0 c1.7798 0 3.4887 -0.34879 5.078 -1.0376 c1.5971 -0.69144 3.0053 -1.646 4.1856 -2.8384 c1.181 -1.1941 2.132 -2.6049 2.8261 -4.1932 z M238.36 39.61492 l4.6392 -4.2956 l14 0 l0 4.6802 l-18.639 0 l0 -0.38461 z M256.12600000000003 36.1944 l-12.783 0 l-3.167 2.9319 l15.95 0 l0 -2.9319 z M238.36 12 l18.64 0 l0 4.6802 l-14 0 z M256.12600000000003 15.806000000000001 l0 -2.9319 l-15.668 0 l2.9065 2.9319 l12.762 0 z M238.36 28.34 l0 -4.64 l18.639 0 l0 4.64 l-18.639 0 z M239.2341 24.573999999999998 l0 2.8917 l16.891 0 l0 -2.8917 l-16.891 0 z M282.01 26.082 c1.6137 1.5866 2.4196 3.5098 2.4205 5.7684 c0 2.2334 -0.80684 4.1556 -2.4205 5.77 c-1.5883 1.5875 -3.5106 2.3803 -5.77 2.3803 l0 -4.6802 c0.4834 0 0.94144 -0.087424 1.3715 -0.26312 c0.43008 -0.17394 0.80684 -0.41608 1.1294 -0.72556 c0.32344 -0.30945 0.57084 -0.68008 0.74652 -1.1102 c0.17394 -0.43008 0.26223 -0.88728 0.26223 -1.3715 c0 -0.9406 -0.34965 -1.7606 -1.049 -2.4608 c-0.67224 -0.69928 -1.4922 -1.049 -2.4608 -1.049 l-6.9792 0 c-2.2596 0 -4.1836 -0.79372 -5.7692 -2.3803 c-1.5883 -1.5866 -2.3812 -3.5228 -2.3812 -5.8096 c0 -2.2326 0.79372 -4.1416 2.3812 -5.7292 c1.5604 -1.6137 3.4835 -2.4214 5.7692 -2.4214 l0 4.681 c-0.4834 0 -0.94144 0.086524 -1.3715 0.26223 s-0.80684 0.42396 -1.1294 0.74652 c-0.32254 0.32254 -0.57168 0.70016 -0.74652 1.1302 s-0.26226 0.87416 -0.26226 1.3304 c0 0.96856 0.33566 1.8025 1.0088 2.5018 c0.67132 0.69928 1.5053 1.0481 2.5009 1.0481 l6.9792 0 c2.2596 0 4.1828 0.7946 5.7704 2.3812 z M281.392 37.0022 c1.4563 -1.4572 2.1634 -3.1426 2.1642 -5.1524 c0 -2.0341 -0.70628 -3.7169 -2.1591 -5.146 c-1.4354 -1.4354 -3.1207 -2.1303 -5.1564 -2.1303 l-6.9792 0 c-1.2378 0 -2.2911 -0.44232 -3.1312 -1.3164 c-0.83132 -0.86368 -1.2526 -1.9091 -1.2526 -3.1076 c0 -0.56908 0.10926 -1.1276 0.32606 -1.66 c0.21856 -0.53672 0.535 -1.0149 0.93888 -1.4188 c0.40296 -0.40388 0.88024 -0.7194 1.4178 -0.93796 c0.2666 -0.1084 0.5428 -0.19058 0.82692 -0.24476 l0 -2.9695 c-1.667 0.1757 -3.0691 0.87068 -4.2668 2.1093 c-1.4406 1.4406 -2.1356 3.112 -2.1356 5.1216 c0 2.0647 0.6958 3.7623 2.125 5.1916 s3.1137 2.1242 5.1512 2.1242 l6.9792 0 c1.2098 0 2.25 0.4432 3.091 1.3174 c0.85492 0.8558 1.2938 1.8916 1.2938 3.0674 c0 0.5944 -0.11016 1.1661 -0.32606 1.7002 c-0.22465 0.54808 -0.54456 1.0227 -0.95368 1.4135 c-0.40212 0.38461 -0.87504 0.68884 -1.4056 0.90388 c-0.26574 0.1084 -0.54196 0.19058 -0.82604 0.24476 l0 2.9686 c1.6522 -0.17394 3.0578 -0.85924 4.278 -2.0787 z"></path></g><g id="SvgjsG4080" featureKey="sloganFeature-0" transform="matrix(1.4679665034283462,0,0,1.4679665034283462,75.60438186777884,40.42707469600357)" fill="#111111"><path d="M18.67 6 c0.22 0 0.29 0.14 0.24 0.34 l-3.57 13.42 c-0.04 0.16 -0.2 0.24 -0.36 0.24 l-1.53 0 c-0.16 0 -0.31 -0.08 -0.36 -0.24 l-3.17 -10.57 l-3.17 10.57 c-0.05 0.16 -0.19 0.24 -0.35 0.24 l-1.54 0 c-0.16 0 -0.32 -0.08 -0.36 -0.24 l-3.53 -13.42 c-0.06 -0.21 0.02 -0.34 0.24 -0.34 l1.29 0 c0.16 0 0.3 0.06 0.34 0.24 l2.83 11.41 l3.32 -11.41 c0.03 -0.11 0.09 -0.17 0.16 -0.21 c0.04 -0.02 0.1 -0.03 0.16 -0.03 l1.23 0 c0.06 0 0.12 0.01 0.16 0.03 c0.07 0.04 0.13 0.1 0.16 0.21 l3.32 11.41 l2.86 -11.41 c0.05 -0.18 0.18 -0.24 0.34 -0.24 l1.29 0 z M31.141 18.3 c0.18 0 0.3 0.12 0.3 0.3 l0 1.1 c0 0.18 -0.12 0.3 -0.3 0.3 l-8.55 0 c-0.18 0 -0.3 -0.12 -0.3 -0.3 l0 -13.4 c0 -0.18 0.12 -0.3 0.3 -0.3 l8.53 0 c0.18 0 0.3 0.12 0.3 0.3 l0 1.1 c0 0.18 -0.12 0.3 -0.3 0.3 l-6.96 0 l0 4.15 l6.43 0 c0.18 0 0.3 0.12 0.3 0.3 l0 1.1 c0 0.18 -0.12 0.3 -0.3 0.3 l-6.43 0 l0 4.75 l6.98 0 z M42.01199999999999 12.440000000000001 c1.97 0.45 2.84 1.88 2.84 3.53 c0 2.77 -1.56 4.03 -4.97 4.03 l-4.63 0 c-0.18 0 -0.3 -0.12 -0.3 -0.3 l0 -13.4 c0 -0.18 0.12 -0.3 0.3 -0.3 l4.77 0 c3.13 0 4.13 1.7 4.13 3.39 c0 1.43 -0.65 2.59 -2.14 3.05 z M42.352 9.55 c0 -1.29 -0.81 -1.85 -2.5 -1.85 l-3.03 0 l0 4.05 l3.1 0 c1.63 0 2.43 -0.81 2.43 -2.2 z M39.852 18.3 c2.06 0 3.1 -0.62 3.1 -2.43 c0 -1.48 -0.88 -2.52 -3.02 -2.52 l-3.11 0 l0 4.95 l3.03 0 z M57.663 13.61 c0.18 0 0.3 0.12 0.3 0.3 l0 0.93 c0 0.18 -0.12 0.3 -0.3 0.3 l-9.4 0 c-0.18 0 -0.3 -0.12 -0.3 -0.3 l0 -0.93 c0 -0.18 0.12 -0.3 0.3 -0.3 l9.4 0 z M65.42399999999999 6 c4.85 0 7.33 3.05 7.33 7 c0 3.94 -2.48 7 -7.33 7 l-3.35 0 c-0.18 0 -0.3 -0.12 -0.3 -0.3 l0 -13.4 c0 -0.18 0.12 -0.3 0.3 -0.3 l3.35 0 z M65.42399999999999 18.3 c3.63 0 5.43 -2.01 5.43 -5.3 c0 -3.3 -1.8 -5.3 -5.43 -5.3 l-1.78 0 l0 10.6 l1.78 0 z M84.96499999999999 18.3 c0.18 0 0.3 0.12 0.3 0.3 l0 1.1 c0 0.18 -0.12 0.3 -0.3 0.3 l-8.55 0 c-0.18 0 -0.3 -0.12 -0.3 -0.3 l0 -13.4 c0 -0.18 0.12 -0.3 0.3 -0.3 l8.53 0 c0.18 0 0.3 0.12 0.3 0.3 l0 1.1 c0 0.18 -0.12 0.3 -0.3 0.3 l-6.96 0 l0 4.15 l6.43 0 c0.18 0 0.3 0.12 0.3 0.3 l0 1.1 c0 0.18 -0.12 0.3 -0.3 0.3 l-6.43 0 l0 4.75 l6.98 0 z M98.37599999999999 6.24 c0.07 -0.18 0.18 -0.24 0.34 -0.24 l1.29 0 c0.22 0 0.32 0.14 0.24 0.34 l-5.08 13.42 c-0.06 0.16 -0.2 0.24 -0.36 0.24 l-1.26 0 c-0.16 0 -0.3 -0.08 -0.36 -0.24 l-5.08 -13.42 c-0.08 -0.2 0.02 -0.34 0.24 -0.34 l1.29 0 c0.16 0 0.27 0.06 0.34 0.24 l4.2 11.42 z M112.28699999999999 18.3 c0.18 0 0.3 0.12 0.3 0.3 l0 1.1 c0 0.18 -0.12 0.3 -0.3 0.3 l-8.55 0 c-0.18 0 -0.3 -0.12 -0.3 -0.3 l0 -13.4 c0 -0.18 0.12 -0.3 0.3 -0.3 l8.53 0 c0.18 0 0.3 0.12 0.3 0.3 l0 1.1 c0 0.18 -0.12 0.3 -0.3 0.3 l-6.96 0 l0 4.15 l6.43 0 c0.18 0 0.3 0.12 0.3 0.3 l0 1.1 c0 0.18 -0.12 0.3 -0.3 0.3 l-6.43 0 l0 4.75 l6.98 0 z M125.098 18.3 c0.18 0 0.3 0.12 0.3 0.3 l0 1.1 c0 0.18 -0.12 0.3 -0.3 0.3 l-8.45 0 c-0.18 0 -0.3 -0.12 -0.3 -0.3 l0 -13.4 c0 -0.18 0.12 -0.3 0.3 -0.3 l1.27 0 c0.18 0 0.3 0.12 0.3 0.3 l0 12 l6.88 0 z M135.579 20.26 c-3.96 0 -7.17 -3.2 -7.17 -7.2 c0 -4.02 3.21 -7.22 7.17 -7.22 c3.95 0 7.16 3.2 7.16 7.22 c0 4 -3.21 7.2 -7.16 7.2 z M135.579 18.49 c2.97 0 5.32 -2.4 5.32 -5.43 c0 -3.05 -2.35 -5.45 -5.32 -5.45 c-2.98 0 -5.33 2.4 -5.33 5.45 c0 3.03 2.35 5.43 5.33 5.43 z M151.71 6 c3.69 0 5.04 1.56 5.04 4.39 c0 2.84 -1.35 4.4 -5.04 4.4 l-3.39 0 l0 4.91 c0 0.18 -0.12 0.3 -0.3 0.3 l-1.27 0 c-0.18 0 -0.3 -0.12 -0.3 -0.3 l0 -13.4 c0 -0.18 0.12 -0.3 0.3 -0.3 l4.96 0 z M151.84 13.09 c1.86 0 3.1 -0.5 3.1 -2.7 c0 -2.19 -1.24 -2.69 -3.1 -2.69 l-3.52 0 l0 5.39 l3.52 0 z M168.961 18.3 c0.18 0 0.3 0.12 0.3 0.3 l0 1.1 c0 0.18 -0.12 0.3 -0.3 0.3 l-8.55 0 c-0.18 0 -0.3 -0.12 -0.3 -0.3 l0 -13.4 c0 -0.18 0.12 -0.3 0.3 -0.3 l8.53 0 c0.18 0 0.3 0.12 0.3 0.3 l0 1.1 c0 0.18 -0.12 0.3 -0.3 0.3 l-6.96 0 l0 4.15 l6.43 0 c0.18 0 0.3 0.12 0.3 0.3 l0 1.1 c0 0.18 -0.12 0.3 -0.3 0.3 l-6.43 0 l0 4.75 l6.98 0 z M180.362 14.57 l2.68 5.08 c0.11 0.21 0.01 0.35 -0.22 0.35 l-1.32 0 c-0.16 0 -0.27 -0.07 -0.35 -0.22 l-2.58 -4.99 l-0.29 0 l-3.39 0 l0 4.91 c0 0.18 -0.12 0.3 -0.3 0.3 l-1.27 0 c-0.18 0 -0.3 -0.12 -0.3 -0.3 l0 -13.4 c0 -0.18 0.12 -0.3 0.3 -0.3 l4.96 0 c3.69 0 5.04 1.56 5.04 4.39 c0 2.22 -0.83 3.66 -2.96 4.18 z M174.892 7.699999999999999 l0 5.39 l3.52 0 c1.86 0 3.1 -0.5 3.1 -2.7 c0 -2.19 -1.24 -2.69 -3.1 -2.69 l-3.52 0 z"></path></g>
			</g>
		</svg>
	